HIERARCHY
ROOT Hips
{
  OFFSET 24.6381 83.5097 3.48373
  CHANNELS 6 Xposition Yposition Zposition Zrotation Xrotation Yrotation
  JOINT Spine
  {
    OFFSET 0 10.1816 0.1315
    CHANNELS 6 Xposition Yposition Zposition Zrotation Xrotation Yrotation
    JOINT Spine1
    {
      OFFSET 0 10.0835 -1.0008
      CHANNELS 6 Xposition Yposition Zposition Zrotation Xrotation Yrotation
      JOINT Spine2
      {
        OFFSET 0 9.1 -1.3734
        CHANNELS 6 Xposition Yposition Zposition Zrotation Xrotation Yrotation
        JOINT Neck
        {
          OFFSET 0 16.6717 -2.5162
          CHANNELS 6 Xposition Yposition Zposition Zrotation Xrotation Yrotation
          JOINT Head
          {
            OFFSET 0 9.6179 1.685
            CHANNELS 6 Xposition Yposition Zposition Zrotation Xrotation Yrotation
            JOINT HeadTop_End
            {
              OFFSET 0 17.8152 2.585
              CHANNELS 6 Xposition Yposition Zposition Zrotation Xrotation Yrotation
              End Site
              {
                OFFSET 0 0 0
              }
            }
            JOINT LeftEye
            {
              OFFSET 3.0676 6.4095 9.2836
              CHANNELS 6 Xposition Yposition Zposition Zrotation Xrotation Yrotation
              End Site
              {
                OFFSET 0 0 0
              }
            }
            JOINT RightEye
            {
              OFFSET -3.0676 6.4095 9.2835
              CHANNELS 6 Xposition Yposition Zposition Zrotation Xrotation Yrotation
              End Site
              {
                OFFSET 0 0 0
              }
            }
          }
        }
        JOINT LeftShoulder
        {
          OFFSET 4.5704 10.946 -2.628
          CHANNELS 6 Xposition Yposition Zposition Zrotation Xrotation Yrotation
          JOINT LeftArm
          {
            OFFSET 10.5924 -0.5246 -2.2321
            CHANNELS 6 Xposition Yposition Zposition Zrotation Xrotation Yrotation
            JOINT LeftForeArm
            {
              OFFSET 27.8415 -0.0001 0
              CHANNELS 6 Xposition Yposition Zposition Zrotation Xrotation Yrotation
              JOINT LeftHand
              {
                OFFSET 28.3288 0 0
                CHANNELS 6 Xposition Yposition Zposition Zrotation Xrotation Yrotation
                JOINT LeftHandThumb1
                {
                  OFFSET 2.4661 -1.575 2.6824
                  CHANNELS 6 Xposition Yposition Zposition Zrotation Xrotation Yrotation
                  JOINT LeftHandThumb2
                  {
                    OFFSET 3.2298 -1.8647 1.8647
                    CHANNELS 6 Xposition Yposition Zposition Zrotation Xrotation Yrotation
                    JOINT LeftHandThumb3
                    {
                      OFFSET 2.6526 -1.5315 1.5315
                      CHANNELS 6 Xposition Yposition Zposition Zrotation Xrotation Yrotation
                      End Site
                      {
                        OFFSET 1.9546 -1.1285 1.1285
                      }
                    }
                  }
                }
                JOINT LeftHandIndex1
                {
                  OFFSET 9.1093 -0.5171 2.2601
                  CHANNELS 6 Xposition Yposition Zposition Zrotation Xrotation Yrotation
                  JOINT LeftHandIndex2
                  {
                    OFFSET 3.6764 0 0
                    CHANNELS 6 Xposition Yposition Zposition Zrotation Xrotation Yrotation
                    JOINT LeftHandIndex3
                    {
                      OFFSET 2.8831 0 0
                      CHANNELS 6 Xposition Yposition Zposition Zrotation Xrotation Yrotation
                      End Site
                      {
                        OFFSET 2.3927 0 0
                      }
                    }
                  }
                }
                JOINT LeftHandMiddle1
                {
                  OFFSET 9.5334 0 0
                  CHANNELS 6 Xposition Yposition Zposition Zrotation Xrotation Yrotation
                  JOINT LeftHandMiddle2
                  {
                    OFFSET 3.6982 0 0
                    CHANNELS 6 Xposition Yposition Zposition Zrotation Xrotation Yrotation
                    JOINT LeftHandMiddle3
                    {
                      OFFSET 2.9509 0 0
                      CHANNELS 6 Xposition Yposition Zposition Zrotation Xrotation Yrotation
                      End Site
                      {
                        OFFSET 2.8339 0 0
                      }
                    }
                  }
                }
                JOINT LeftHandRing1
                {
                  OFFSET 9.1045 -0.0439 -1.8651
                  CHANNELS 6 Xposition Yposition Zposition Zrotation Xrotation Yrotation
                  JOINT LeftHandRing2
                  {
                    OFFSET 3.154 0 0
                    CHANNELS 6 Xposition Yposition Zposition Zrotation Xrotation Yrotation
                    JOINT LeftHandRing3
                    {
                      OFFSET 2.9377 0 0
                      CHANNELS 6 Xposition Yposition Zposition Zrotation Xrotation Yrotation
                      End Site
                      {
                        OFFSET 2.6475 0 0
                      }
                    }
                  }
                }
                JOINT LeftHandPinky1
                {
                  OFFSET 8.0778 -0.4887 -3.8061
                  CHANNELS 6 Xposition Yposition Zposition Zrotation Xrotation Yrotation
                  JOINT LeftHandPinky2
                  {
                    OFFSET 3.6 0 0
                    CHANNELS 6 Xposition Yposition Zposition Zrotation Xrotation Yrotation
                    JOINT LeftHandPinky3
                    {
                      OFFSET 2.1142 0 0
                      CHANNELS 6 Xposition Yposition Zposition Zrotation Xrotation Yrotation
                      End Site
                      {
                        OFFSET 1.9757 0 0
                      }
                    }
                  }
                }
              }
            }
          }
        }
        JOINT RightShoulder
        {
          OFFSET -4.57 10.9462 -2.628
          CHANNELS 6 Xposition Yposition Zposition Zrotation Xrotation Yrotation
          JOINT RightArm
          {
            OFFSET -10.5928 -0.5248 -2.2321
            CHANNELS 6 Xposition Yposition Zposition Zrotation Xrotation Yrotation
            JOINT RightForeArm
            {
              OFFSET -27.8415 0 0
              CHANNELS 6 Xposition Yposition Zposition Zrotation Xrotation Yrotation
              JOINT RightHand
              {
                OFFSET -28.3288 0 0.0001
                CHANNELS 6 Xposition Yposition Zposition Zrotation Xrotation Yrotation
                JOINT RightHandPinky1
                {
                  OFFSET -8.0767 -0.4885 -3.806
                  CHANNELS 6 Xposition Yposition Zposition Zrotation Xrotation Yrotation
                  JOINT RightHandPinky2
                  {
                    OFFSET -3.6 0 0.0001
                    CHANNELS 6 Xposition Yposition Zposition Zrotation Xrotation Yrotation
                    JOINT RightHandPinky3
                    {
                      OFFSET -2.1142 0 0
                      CHANNELS 6 Xposition Yposition Zposition Zrotation Xrotation Yrotation
                      End Site
                      {
                        OFFSET -1.9757 0 0
                      }
                    }
                  }
                }
                JOINT RightHandRing1
                {
                  OFFSET -9.1036 -0.0439 -1.8651
                  CHANNELS 6 Xposition Yposition Zposition Zrotation Xrotation Yrotation
                  JOINT RightHandRing2
                  {
                    OFFSET -3.154 0 0
                    CHANNELS 6 Xposition Yposition Zposition Zrotation Xrotation Yrotation
                    JOINT RightHandRing3
                    {
                      OFFSET -2.9377 0 0
                      CHANNELS 6 Xposition Yposition Zposition Zrotation Xrotation Yrotation
                      End Site
                      {
                        OFFSET -2.6475 0 0
                      }
                    }
                  }
                }
                JOINT RightHandMiddle1
                {
                  OFFSET -9.5325 0 0
                  CHANNELS 6 Xposition Yposition Zposition Zrotation Xrotation Yrotation
                  JOINT RightHandMiddle2
                  {
                    OFFSET -3.6982 0 0
                    CHANNELS 6 Xposition Yposition Zposition Zrotation Xrotation Yrotation
                    JOINT RightHandMiddle3
                    {
                      OFFSET -2.9509 0 0
                      CHANNELS 6 Xposition Yposition Zposition Zrotation Xrotation Yrotation
                      End Site
                      {
                        OFFSET -2.8339 0 0.0001
                      }
                    }
                  }
                }
                JOINT RightHandIndex1
                {
                  OFFSET -9.1083 -0.5168 2.2601
                  CHANNELS 6 Xposition Yposition Zposition Zrotation Xrotation Yrotation
                  JOINT RightHandIndex2
                  {
                    OFFSET -3.6764 0 0
                    CHANNELS 6 Xposition Yposition Zposition Zrotation Xrotation Yrotation
                    JOINT RightHandIndex3
                    {
                      OFFSET -2.8831 0 0
                      CHANNELS 6 Xposition Yposition Zposition Zrotation Xrotation Yrotation
                      End Site
                      {
                        OFFSET -2.3927 0 0
                      }
                    }
                  }
                }
                JOINT RightHandThumb1
                {
                  OFFSET -2.4648 -1.5727 2.6826
                  CHANNELS 6 Xposition Yposition Zposition Zrotation Xrotation Yrotation
                  JOINT RightHandThumb2
                  {
                    OFFSET -3.2298 -1.8647 1.8647
                    CHANNELS 6 Xposition Yposition Zposition Zrotation Xrotation Yrotation
                    JOINT RightHandThumb3
                    {
                      OFFSET -2.6526 -1.5314 1.5314
                      CHANNELS 6 Xposition Yposition Zposition Zrotation Xrotation Yrotation
                      End Site
                      {
                        OFFSET -1.9546 -1.1285 1.1285
                      }
                    }
                  }
                }
              }
            }
          }
        }
      }
    }
  }
  JOINT LeftUpLeg
  {
    OFFSET 8.2078 -6.7517 -1.5996
    CHANNELS 6 Xposition Yposition Zposition Zrotation Xrotation Yrotation
    JOINT LeftLeg
    {
      OFFSET 0 -44.3705 0.2846
      CHANNELS 6 Xposition Yposition Zposition Zrotation Xrotation Yrotation
      JOINT LeftFoot
      {
        OFFSET 0 -44.4279 -2.9822
        CHANNELS 6 Xposition Yposition Zposition Zrotation Xrotation Yrotation
        JOINT LeftToeBase
        {
          OFFSET 0 -8.7287 10.7106
          CHANNELS 6 Xposition Yposition Zposition Zrotation Xrotation Yrotation
          End Site
          {
            OFFSET 0 -0.0007 9.2781
          }
        }
      }
    }
  }
  JOINT RightUpLeg
  {
    OFFSET -8.2078 -6.7517 -1.5996
    CHANNELS 6 Xposition Yposition Zposition Zrotation Xrotation Yrotation
    JOINT RightLeg
    {
      OFFSET 0 -44.3705 0.2862
      CHANNELS 6 Xposition Yposition Zposition Zrotation Xrotation Yrotation
      JOINT RightFoot
      {
        OFFSET 0 -44.4277 -2.9838
        CHANNELS 6 Xposition Yposition Zposition Zrotation Xrotation Yrotation
        JOINT RightToeBase
        {
          OFFSET 0 -8.7287 10.7106
          CHANNELS 6 Xposition Yposition Zposition Zrotation Xrotation Yrotation
          End Site
          {
            OFFSET 0 -0.0007 9.2781
          }
        }
      }
    }
  }
}
MOTION
Frames:	4
Frame Time:	0.0333333
0.0855899 81.5419 2.95575 -1.65523 25.5759 -5.44635 -8.88178e-016 10.1816 0.1315 2.78598 9.70689 -0.859676 0 10.0835 -1.0008 1.38001 8.06892 -0.802715 -2.22045e-016 9.1 -1.3734 1.35149 8.08008 -0.708545 -4.44089e-016 16.6717 -2.5162 -0.973413 -7.33682 0.0509459 -8.88178e-016 9.6179 1.685 -2.34038 -30.3276 9.49913 0 17.8152 2.585 3.97569e-016 -3.18055e-015 3.97569e-016 3.0676 6.4095 9.2836 3.97569e-016 -3.18055e-015 3.97569e-016 -3.0676 6.4095 9.2835 3.97569e-016 -3.18055e-015 3.97569e-016 4.5704 10.946 -2.628 -16.6816 0.494059 1.39239 10.5924 -0.5246 -2.2321 -42.6921 -60.0201 -3.08008 27.8415 -0.0001 7.10543e-015 -0.000205195 1.53864e-006 -15.723 28.3288 -1.42109e-014 0 -13.9534 -45.2843 -31.3505 2.4661 -1.575 2.6824 9.94871 -14.362 -13.0422 3.2298 -1.8647 1.8647 -3.06675 3.0903 9.37336 2.6526 -1.5315 1.5315 10.1427 -11.1934 -9.24417 9.1093 -0.5171 2.2601 -9.84915 -0.0775622 -16.6662 3.6764 0 -1.42109e-014 -10.4284 -0.0965574 1.05811 2.8831 1.42109e-014 1.42109e-014 -12.0984 -0.129855 1.22523 9.5334 7.10543e-015 1.42109e-014 -17.7336 -0.917923 -0.615419 3.6982 7.10543e-015 0 -12.5303 -0.139237 1.2683 2.9509 7.10543e-015 -1.42109e-014 -12.5571 -0.139834 1.27096 9.1045 -0.0439 -1.8651 -18.53 -0.949242 11.2412 3.154 0 -1.42109e-014 -24.1458 -0.511647 2.3918 2.9377 7.10543e-015 0 -10.4421 -0.0968 1.0595 8.0778 -0.4887 -3.8061 -22.8143 -0.872371 27.0039 3.6 -7.10543e-015 0 -13.9898 -0.173391 1.41327 2.1142 -7.10543e-015 1.42109e-014 -10.4419 -0.096813 1.05946 -4.57 10.9462 -2.628 15.5322 1.64591 3.85308 -10.5928 -0.5248 -2.2321 47.7704 -50.5432 40.7736 -27.8415 0 -7.10543e-015 -8.45828e-006 4.77248e-006 26.7133 -28.3288 -1.42109e-014 0.0001 3.24788 -29.9173 16.4542 -8.0767 -0.4885 -3.806 17.4613 -0.549548 -24.4908 -3.6 7.10543e-015 0.0001 16.6136 -0.193282 -1.32542 -2.1142 0 0 16.2135 -0.184588 -1.29586 -9.1036 -0.0439 -1.8651 14.8233 -0.673863 -8.56479 -3.154 7.10543e-015 -1.42109e-014 19.4025 -0.263599 -1.54182 -2.9377 7.10543e-015 0 13.7726 -0.133433 -1.10486 -9.5325 1.42109e-014 0 11.2192 -0.464886 2.33138 -3.6982 -7.10543e-015 1.42109e-014 13.2371 -0.123321 -1.06268 -2.9509 0 1.42109e-014 10.5902 -0.07904 -0.854934 -9.1083 -0.5168 2.2601 6.92257 0.336311 18.756 -3.6764 0 -1.42109e-014 5.65758 -0.0225811 -0.457506 -2.8831 1.42109e-014 0 11.3829 -0.091274 -0.91594 -2.4648 -1.5727 2.6826 -4.42297 -21.9662 5.71615 -3.2298 -1.8647 1.8647 -0.93103 4.82704 -2.29379 -2.6526 -1.5314 1.5314 -11.9125 -8.72176 5.07132 8.2078 -6.7517 -1.5996 53.3519 -34.6274 38.4954 -7.10543e-015 -44.3705 0.2846 3.91853 47.7013 -6.64034 -7.10543e-015 -44.4279 -2.9822 -24.3817 -17.4882 -2.48112 -7.10543e-015 -8.7287 10.7106 -1.07837e-005 -7.30672 -8.86908e-006 -8.2078 -6.7517 -1.5996 -41.4636 -59.6236 -28.0085 -7.10543e-015 -44.3705 0.2862 -12.3112 42.0838 13.5934 -7.10543e-015 -44.4277 -2.9838 24.5449 -0.745113 -15.6907 0 -8.7287 10.7106 2.34513e-006 -3.38019 5.27324e-006 
8.5023 81.8151 3.49064 -3.21915 24.9002 -3.92852 -2.22045e-016 10.1816 0.1315 4.2242 8.53926 -0.465385 1.77636e-015 10.0835 -1.0008 1.65091 7.96203 -0.794763 -1.77636e-015 9.1 -1.3734 1.62644 7.97146 -0.711352 -1.77636e-015 16.6717 -2.5162 -0.976547 -7.02952 -0.459897 0 9.6179 1.685 0.454257 -27.8173 11.3102 -1.77636e-015 17.8152 2.585 1.98785e-016 -1.59028e-015 7.95139e-016 3.0676 6.4095 9.2836 1.98785e-016 -1.59028e-015 7.95139e-016 -3.0676 6.4095 9.2835 1.98785e-016 -1.59028e-015 7.95139e-016 4.5704 10.946 -2.628 -16.3428 0.642713 0.800451 10.5924 -0.5246 -2.2321 -46.0137 -60.0329 -4.58272 27.8415 -0.0001 0 -0.00021856 3.29138e-006 -15.5425 28.3288 1.42109e-014 0 -13.2716 -44.3092 -29.5348 2.4661 -1.575 2.6824 9.94871 -14.362 -13.0422 3.2298 -1.8647 1.8647 -3.06675 3.0903 9.37336 2.6526 -1.5315 1.5315 10.1427 -11.1934 -9.24417 9.1093 -0.5171 2.2601 -9.84915 -0.0775622 -16.6662 3.6764 0 1.42109e-014 -10.4284 -0.0965574 1.05811 2.8831 -7.10543e-015 0 -12.0984 -0.129855 1.22523 9.5334 0 0 -17.7336 -0.917923 -0.615419 3.6982 0 0 -12.5303 -0.139237 1.2683 2.9509 0 -1.42109e-014 -12.5571 -0.139834 1.27096 9.1045 -0.0439 -1.8651 -18.53 -0.949242 11.2412 3.154 -7.10543e-015 0 -24.1458 -0.511647 2.3918 2.9377 -7.10543e-015 0 -10.4421 -0.0968 1.0595 8.0778 -0.4887 -3.8061 -22.8143 -0.872371 27.0039 3.6 7.10543e-015 -1.42109e-014 -13.9898 -0.173391 1.41327 2.1142 0 1.42109e-014 -10.4419 -0.096813 1.05946 -4.57 10.9462 -2.628 15.9342 1.53105 3.11786 -10.5928 -0.5248 -2.2321 45.6455 -52.2687 37.4865 -27.8415 0 0 -5.94086e-006 -4.81451e-007 27.8446 -28.3288 0 0.0001 2.11449 -28.7653 16.6402 -8.0767 -0.4885 -3.806 17.4613 -0.549548 -24.4908 -3.6 -1.42109e-014 0.0001 16.6136 -0.193282 -1.32542 -2.1142 0 0 16.2135 -0.184588 -1.29586 -9.1036 -0.0439 -1.8651 14.8233 -0.673863 -8.56479 -3.154 -7.10543e-015 0 19.4025 -0.263599 -1.54182 -2.9377 -7.10543e-015 0 13.7726 -0.133433 -1.10486 -9.5325 -1.42109e-014 0 11.2192 -0.464886 2.33138 -3.6982 0 1.42109e-014 13.2371 -0.123321 -1.06268 -2.9509 7.10543e-015 0 10.5902 -0.07904 -0.854934 -9.1083 -0.5168 2.2601 6.92257 0.336311 18.756 -3.6764 7.10543e-015 0 5.65758 -0.0225811 -0.457506 -2.8831 -7.10543e-015 -1.42109e-014 11.3829 -0.091274 -0.91594 -2.4648 -1.5727 2.6826 -4.42297 -21.9662 5.71615 -3.2298 -1.8647 1.8647 -0.93103 4.82704 -2.29379 -2.6526 -1.5314 1.5314 -11.9125 -8.72176 5.07132 8.2078 -6.7517 -1.5996 53.6693 -40.0357 41.4655 0 -44.3705 0.2846 5.53165 58.8635 -9.94546 0 -44.4279 -2.9822 -18.6621 -24.5568 -3.28258 0 -8.7287 10.7106 9.12974e-006 -7.32539 1.0705e-006 -8.2078 -6.7517 -1.5996 -45.5491 -57.0245 -31.0353 0 -44.3705 0.2862 -12.0921 38.5235 16.9101 -1.42109e-014 -44.4277 -2.9838 21.3526 20.1456 -15.0571 0 -8.7287 10.7106 2.06252 -17.6025 0.581915 
16.5313 82.4952 3.83842 -4.72451 24.6528 -4.12614 0 10.1816 0.1315 5.70799 8.58802 0.307054 0 10.0835 -1.0008 1.93975 7.91285 -0.654316 0 9.1 -1.3734 1.91603 7.92133 -0.586413 -7.10543e-015 16.6717 -2.5162 -1.28576 -6.86291 -0.945526 0 9.6179 1.685 3.0535 -26.1398 13.7156 -3.55271e-015 17.8152 2.585 -4.96962e-016 1.59028e-015 -0 3.0676 6.4095 9.2836 -4.96962e-016 1.59028e-015 -0 -3.0676 6.4095 9.2835 -4.96962e-016 1.59028e-015 -0 4.5704 10.946 -2.628 -16.512 0.714462 0.553282 10.5924 -0.5246 -2.2321 -49.4732 -61.0393 -6.00016 27.8415 -0.0001 -3.55271e-015 -0.000209202 -7.16064e-007 -16.0634 28.3288 -1.42109e-014 0 -13.1782 -43.0916 -28.4639 2.4661 -1.575 2.6824 9.94871 -14.362 -13.0422 3.2298 -1.8647 1.8647 -3.06675 3.0903 9.37336 2.6526 -1.5315 1.5315 10.1427 -11.1934 -9.24417 9.1093 -0.5171 2.2601 -9.84915 -0.0775622 -16.6662 3.6764 0 1.42109e-014 -10.4284 -0.0965574 1.05811 2.8831 7.10543e-015 1.42109e-014 -12.0984 -0.129855 1.22523 9.5334 0 0 -17.7336 -0.917923 -0.615419 3.6982 7.10543e-015 1.42109e-014 -12.5303 -0.139237 1.2683 2.9509 7.10543e-015 0 -12.5571 -0.139834 1.27096 9.1045 -0.0439 -1.8651 -18.53 -0.949242 11.2412 3.154 -7.10543e-015 -1.42109e-014 -24.1458 -0.511647 2.3918 2.9377 7.10543e-015 -1.42109e-014 -10.4421 -0.0968 1.0595 8.0778 -0.4887 -3.8061 -22.8143 -0.872371 27.0039 3.6 0 0 -13.9898 -0.173391 1.41327 2.1142 7.10543e-015 0 -10.4419 -0.096813 1.05946 -4.57 10.9462 -2.628 15.8878 1.47263 2.822 -10.5928 -0.5248 -2.2321 43.561 -53.2923 35.0381 -27.8415 0 0 -4.58141e-007 2.75184e-006 28.5516 -28.3288 1.42109e-014 0.0001 1.6087 -29.0012 16.9731 -8.0767 -0.4885 -3.806 17.4613 -0.549548 -24.4908 -3.6 1.42109e-014 0.0001 16.6136 -0.193282 -1.32542 -2.1142 0 0 16.2135 -0.184588 -1.29586 -9.1036 -0.0439 -1.8651 14.8233 -0.673863 -8.56479 -3.154 -7.10543e-015 0 19.4025 -0.263599 -1.54182 -2.9377 7.10543e-015 0 13.7726 -0.133433 -1.10486 -9.5325 0 1.42109e-014 11.2192 -0.464886 2.33138 -3.6982 -7.10543e-015 0 13.2371 -0.123321 -1.06268 -2.9509 -1.42109e-014 0 10.5902 -0.07904 -0.854934 -9.1083 -0.5168 2.2601 6.92257 0.336311 18.756 -3.6764 -7.10543e-015 0 5.65758 -0.0225811 -0.457506 -2.8831 -7.10543e-015 0 11.3829 -0.091274 -0.91594 -2.4648 -1.5727 2.6826 -4.42297 -21.9662 5.71615 -3.2298 -1.8647 1.8647 -0.93103 4.82704 -2.29379 -2.6526 -1.5314 1.5314 -11.9125 -8.72176 5.07132 8.2078 -6.7517 -1.5996 52.5927 -43.1216 43.269 7.10543e-015 -44.3705 0.2846 6.61686 66.0188 -10.4431 7.10543e-015 -44.4279 -2.9822 -13.1855 -29.8441 -3.09217 7.10543e-015 -8.7287 10.7106 -8.61778e-007 -7.5913 -1.03856e-005 -8.2078 -6.7517 -1.5996 -45.5348 -54.6529 -31.4458 0 -44.3705 0.2862 -11.4968 32.508 15.2507 -7.10543e-015 -44.4277 -2.9838 14.5393 30.3703 -10.9253 0 -8.7287 10.7106 -8.42267e-006 -14.355 -2.18269e-007 
24.6381 83.5097 3.48373 -5.71957 24.4637 -5.67016 3.55271e-015 10.1816 0.1315 6.83183 9.88612 0.673784 0 10.0835 -1.0008 2.14248 8.01134 -0.546338 0 9.1 -1.3734 2.11966 8.01914 -0.489529 3.55271e-015 16.6717 -2.5162 -1.80733 -6.96964 -1.34892 -3.55271e-015 9.6179 1.685 5.38902 -25.6096 17.0177 7.10543e-015 17.8152 2.585 -3.97569e-016 3.18055e-015 3.97569e-016 3.0676 6.4095 9.2836 -3.97569e-016 3.18055e-015 3.97569e-016 -3.0676 6.4095 9.2835 -3.97569e-016 3.18055e-015 3.97569e-016 4.5704 10.946 -2.628 -16.9484 0.702011 0.647748 10.5924 -0.5246 -2.2321 -52.0643 -62.0101 -6.72157 27.8415 -0.0001 0 -0.000196025 -2.6104e-006 -17.1619 28.3288 1.42109e-014 0 -12.6423 -42.7613 -28.2545 2.4661 -1.575 2.6824 9.94871 -14.362 -13.0422 3.2298 -1.8647 1.8647 -3.06675 3.0903 9.37336 2.6526 -1.5315 1.5315 10.1427 -11.1934 -9.24417 9.1093 -0.5171 2.2601 -9.84915 -0.0775622 -16.6662 3.6764 0 0 -10.4284 -0.0965574 1.05811 2.8831 -1.42109e-014 0 -12.0984 -0.129855 1.22523 9.5334 0 -1.42109e-014 -17.7336 -0.917923 -0.615419 3.6982 0 0 -12.5303 -0.139237 1.2683 2.9509 0 1.42109e-014 -12.5571 -0.139834 1.27096 9.1045 -0.0439 -1.8651 -18.53 -0.949242 11.2412 3.154 0 1.42109e-014 -24.1458 -0.511647 2.3918 2.9377 0 1.42109e-014 -10.4421 -0.0968 1.0595 8.0778 -0.4887 -3.8061 -22.8143 -0.872371 27.0039 3.6 0 0 -13.9898 -0.173391 1.41327 2.1142 0 0 -10.4419 -0.096813 1.05946 -4.57 10.9462 -2.628 15.4242 1.48732 3.0529 -10.5928 -0.5248 -2.2321 42.7263 -52.8459 34.9464 -27.8415 0 0 -5.35279e-006 -2.15831e-006 28.4602 -28.3288 0 0.0001 1.57877 -30.0053 17.1409 -8.0767 -0.4885 -3.806 17.4613 -0.549548 -24.4908 -3.6 0 0.0001 16.6136 -0.193282 -1.32542 -2.1142 0 1.42109e-014 16.2135 -0.184588 -1.29586 -9.1036 -0.0439 -1.8651 14.8233 -0.673863 -8.56479 -3.154 0 1.42109e-014 19.4025 -0.263599 -1.54182 -2.9377 7.10543e-015 1.42109e-014 13.7726 -0.133433 -1.10486 -9.5325 7.10543e-015 -1.42109e-014 11.2192 -0.464886 2.33138 -3.6982 0 0 13.2371 -0.123321 -1.06268 -2.9509 1.42109e-014 0 10.5902 -0.07904 -0.854934 -9.1083 -0.5168 2.2601 6.92257 0.336311 18.756 -3.6764 -7.10543e-015 0 5.65758 -0.0225811 -0.457506 -2.8831 -7.10543e-015 0 11.3829 -0.091274 -0.91594 -2.4648 -1.5727 2.6826 -4.42297 -21.9662 5.71615 -3.2298 -1.8647 1.8647 -0.93103 4.82704 -2.29379 -2.6526 -1.5314 1.5314 -11.9125 -8.72176 5.07132 8.2078 -6.7517 -1.5996 49.8241 -45.2818 44.1348 7.10543e-015 -44.3705 0.2846 6.82841 70.528 -8.34988 7.10543e-015 -44.4279 -2.9822 -7.75037 -33.6246 -2.22001 -7.10543e-015 -8.7287 10.7106 -6.35007e-007 -7.48143 -4.47968e-006 -8.2078 -6.7517 -1.5996 -48.6301 -59.3447 -36.7665 -3.55271e-015 -44.3705 0.2862 -11.1092 39.4812 16.6859 -1.42109e-014 -44.4277 -2.9838 7.74651 27.5321 -4.82021 0 -8.7287 10.7106 -7.31582e-007 -7.87978 8.71353e-006 
